<svg width="15" height="23" fill="none" xmlns="http://www.w3.org/2000/svg"><path d="M6.895 22.182h2.011l.017-1.969c3.69-.281 5.83-2.241 5.838-5.199-.008-2.906-2.198-4.449-5.233-5.13l-.502-.12.034-4.261c1.133.264 1.823.988 1.926 2.062h3.537c-.043-2.82-2.148-4.84-5.43-5.199L9.112.364H7.099l-.017 1.985c-3.332.324-5.684 2.336-5.667 5.242-.009 2.574 1.807 4.048 4.755 4.756l.819.204-.043 4.509c-1.39-.264-2.327-1.117-2.42-2.54H.955c.085 3.443 2.343 5.37 5.957 5.684l-.017 1.978Zm2.062-5.122.034-3.98c1.322.417 2.037.954 2.046 1.926-.009 1.03-.793 1.798-2.08 2.054ZM7.014 9.244c-1.065-.366-1.832-.92-1.815-1.9 0-.912.648-1.62 1.85-1.867l-.035 3.767Z" fill="#fff"/></svg>