<svg width="44" height="57" fill="none" xmlns="http://www.w3.org/2000/svg"><path d="M.63 28.5c0-8.715 1.673-15.58 5.017-20.596C9.042 2.888 14.488.38 21.987.38c7.499 0 12.92 2.508 16.264 7.524 3.395 5.016 5.092 11.881 5.092 20.596 0 8.816-1.697 15.732-5.092 20.748-3.344 5.016-8.765 7.524-16.264 7.524-7.499 0-12.945-2.508-16.34-7.524C2.303 44.232.63 37.316.63 28.5Zm29.945 0c0-5.117-.557-9.044-1.672-11.78-1.115-2.787-3.42-4.18-6.916-4.18-3.496 0-5.801 1.393-6.916 4.18-1.115 2.736-1.672 6.663-1.672 11.78 0 3.445.203 6.308.608 8.588.405 2.23 1.216 4.053 2.432 5.472 1.267 1.368 3.116 2.052 5.548 2.052s4.256-.684 5.472-2.052c1.267-1.419 2.103-3.243 2.508-5.472.405-2.28.608-5.143.608-8.588Z" fill="#02897A"/></svg>