<svg width="74" height="57" fill="none" xmlns="http://www.w3.org/2000/svg"><path d="M.376 13.604V1.52h21.052V57H7.9V13.604H.376ZM30.518 28.5c0-8.715 1.672-15.58 5.016-20.596C38.929 2.888 44.375.38 51.874.38c7.499 0 12.92 2.508 16.264 7.524C71.533 12.92 73.23 19.785 73.23 28.5c0 8.816-1.697 15.732-5.092 20.748-3.344 5.016-8.765 7.524-16.264 7.524-7.499 0-12.945-2.508-16.34-7.524-3.344-5.016-5.016-11.932-5.016-20.748Zm29.944 0c0-5.117-.557-9.044-1.672-11.78-1.115-2.787-3.42-4.18-6.916-4.18-3.496 0-5.801 1.393-6.916 4.18-1.115 2.736-1.672 6.663-1.672 11.78 0 3.445.203 6.308.608 8.588.405 2.23 1.216 4.053 2.432 5.472 1.267 1.368 3.116 2.052 5.548 2.052s4.256-.684 5.472-2.052c1.267-1.419 2.103-3.243 2.508-5.472.405-2.28.608-5.143.608-8.588Z" fill="#02897A"/></svg>