<svg width="40" height="56" fill="none" xmlns="http://www.w3.org/2000/svg"><path d="M36.77 11.844H13.056v10.488c1.013-1.115 2.432-2.027 4.256-2.736 1.824-.71 3.8-1.064 5.928-1.064 3.8 0 6.942.861 9.424 2.584 2.534 1.723 4.383 3.952 5.548 6.688 1.166 2.736 1.748 5.7 1.748 8.892 0 5.928-1.672 10.64-5.016 14.136C31.601 54.277 26.89 56 20.81 56c-4.053 0-7.575-.684-10.564-2.052-2.99-1.419-5.295-3.37-6.916-5.852C1.708 45.613.821 42.751.67 39.508h12.692c.304 1.57 1.039 2.888 2.204 3.952 1.165 1.013 2.761 1.52 4.788 1.52 2.381 0 4.155-.76 5.32-2.28 1.166-1.52 1.748-3.547 1.748-6.08 0-2.483-.608-4.383-1.824-5.7-1.216-1.317-2.99-1.976-5.32-1.976-1.723 0-3.141.43-4.256 1.292-1.115.81-1.85 1.9-2.204 3.268H1.277V.444H36.77v11.4Z" fill="#fff"/></svg>