<svg width="50" height="51" fill="none" xmlns="http://www.w3.org/2000/svg"><g clip-path="url(#a)"><rect y=".968" width="50" height="50" rx="19" fill="#740A76"/><path d="M25 34.11a.554.554 0 0 0 .393-.16l5.562-5.357c.08-.08 2.045-1.875 2.045-4.018 0-2.616-1.598-4.179-4.268-4.179-1.562 0-3.027 1.232-3.732 1.929-.705-.697-2.17-1.929-3.732-1.929-2.67 0-4.268 1.563-4.268 4.179 0 2.143 1.964 3.937 2.036 4l5.571 5.375c.107.107.25.16.393.16Z" fill="#fff"/></g><defs><clipPath id="a"><path fill="#fff" transform="translate(0 .968)" d="M0 0h50v50H0z"/></clipPath></defs></svg>