<svg width="50" height="51" fill="none" xmlns="http://www.w3.org/2000/svg"><g clip-path="url(#a)"><rect y=".968" width="50" height="50" rx="19" fill="#4D8DFF"/><path d="m25.482 25.61 1.17.545 1.74-.518v-1.214c0-2.062-1.74-3.714-3.82-3.714-2.072 0-3.822 1.643-3.822 3.687v5.536c0 .509-.41.91-.91.91s-.911-.401-.911-.91v-2.34H16v2.376a3.83 3.83 0 0 0 3.83 3.83c2.099 0 3.83-1.687 3.83-3.777v-5.464c0-.5.411-.91.911-.91s.911.41.911.91v1.054Zm4.732 1.983v2.455c0 .5-.41.902-.91.902s-.911-.402-.911-.902v-2.41l-1.741.517-1.17-.544v2.392c0 2.099 1.723 3.795 3.83 3.795a3.83 3.83 0 0 0 3.83-3.83v-2.375h-2.928Z" fill="#fff"/></g><defs><clipPath id="a"><path fill="#fff" transform="translate(0 .968)" d="M0 0h50v50H0z"/></clipPath></defs></svg>