<svg width="50" height="51" fill="none" xmlns="http://www.w3.org/2000/svg"><g clip-path="url(#a)"><rect y=".968" width="50" height="50" rx="19" fill="#F03E3D"/><path d="M30.571 20.396h.858c.16 0 .285-.125.285-.285v-.572a.282.282 0 0 0-.285-.286H18.286a.282.282 0 0 0-.286.286v.572c0 .16.125.285.286.285h.857c0 3.304 1.58 5.697 3.33 6.857-1.75 1.161-3.33 3.554-3.33 6.858h-.857a.282.282 0 0 0-.286.285v.572c0 .16.125.285.286.285h13.143c.16 0 .285-.124.285-.285v-.572a.282.282 0 0 0-.285-.285h-.858c0-3.304-1.58-5.697-3.33-6.857 1.75-1.161 3.33-3.554 3.33-6.858Zm-1.142 0a7.915 7.915 0 0 1-.76 3.429h-7.624a7.916 7.916 0 0 1-.76-3.429h9.144Zm-.51 10.857h-8.124c.66-1.723 1.848-2.946 3.035-3.428h2.054c1.187.482 2.375 1.705 3.036 3.428Z" fill="#fff"/></g><defs><clipPath id="a"><path fill="#fff" transform="translate(0 .968)" d="M0 0h50v50H0z"/></clipPath></defs></svg>