<svg width="51" height="51" fill="none" xmlns="http://www.w3.org/2000/svg"><g clip-path="url(#a)"><rect y=".968" width="50" height="50" rx="19" fill="#02897A"/><path d="m29.116 27.566-9.143-9.143a.534.534 0 0 0-.402-.17.573.573 0 0 0-.571.571v13.43a.573.573 0 0 0 .571.57.568.568 0 0 0 .402-.169l2.786-2.785 1.705 4.035a.574.574 0 0 0 .75.304l1.58-.67a.574.574 0 0 0 .304-.75l-1.794-4.25h3.41a.573.573 0 0 0 .527-.357.55.55 0 0 0-.125-.616Z" fill="#fff"/></g><defs><clipPath id="a"><path fill="#fff" transform="translate(0 .968)" d="M0 0h51v50H0z"/></clipPath></defs></svg>